# xmcd CD database file
#
# Track frame offsets:
#	150
#	12001
#	26100
#	39974
#	51938
#	64913
#	77272
#	88618
#	101483
#	111748
#	128069
#	142092
#	154880
#	168675
#	187738
#	202088
#	213937
#	223019
#	236215
#	248662
#	271574
#	288334
#	305607
#	318982
#	330643
#
# Disc length: 4599 seconds
#
# Revision: 0
# Processed by: cddbd v1.5.2PL0 Copyright (c) Steve Scherf et al.
# Submitted via: CDex 1.51
#
DISCID=6811f519
DTITLE=Johnny Paycheck - Take This Job And Shove It - Armed And Crazy
DYEAR=2008
DGENRE=Country
TTITLE0=Take This Job And Shove It
TTITLE1=From Cotton To Satin (From Birmingham To Manhattan)
TTITLE2=The Spirits Of St. Louis
TTITLE3=The 4-F Blues
TTITLE4=Barstool Mountain
TTITLE5=Georgia In A Jug
TTITLE6=The Fool Strikes Again
TTITLE7=The Man From Bowling Green
TTITLE8=When I Had A Home To Go To
TTITLE9=Colorado Kool-Aid
TTITLE10=Friend, Lover, Wife
TTITLE11=Armed And Crazy
TTITLE12=Mainline
TTITLE13=Thanks To The Cathouse (I'm In The Doghouse With You)
TTITLE14=Leave It To Me
TTITLE15=Me And The I.R.S.
TTITLE16=Let's Have A Hand For The Little Old Lady
TTITLE17=Just Makin' Love Don't Make It Love
TTITLE18=Look What The Dog Drug In
TTITLE19=The Outlaw's Prayer
TTITLE20=I Can't Hold Myself In Line (Bonus Track)
TTITLE21=Yesterday's News Just Hit Home Today (Bonus Track)
TTITLE22=You Don't Have Very Far To Go (Bonus Track)
TTITLE23=No More You And Me (Bonus Track)
TTITLE24=Someone Told My Story (Bonus Track)
EXTD=YEAR: 2008
EXTT0=
EXTT1=
EXTT2=
EXTT3=
EXTT4=
EXTT5=
EXTT6=
EXTT7=
EXTT8=
EXTT9=
EXTT10=
EXTT11=
EXTT12=
EXTT13=
EXTT14=
EXTT15=
EXTT16=
EXTT17=
EXTT18=
EXTT19=
EXTT20=
EXTT21=
EXTT22=
EXTT23=
EXTT24=
PLAYORDER=
